<svg width="326" height="320" viewBox="0 0 326 320" fill="none" xmlns="http://www.w3.org/2000/svg">
<path d="M97.5 64H52.5V116.5L0 116.5L1.96701e-06 161.5H52.5V214H97.5V161.5H150V116.5L97.5 116.5V64Z" fill="white"/>
<path fill-rule="evenodd" clip-rule="evenodd" d="M244.194 0H212.258V37.2581H175V69.1936H212.258V106.452H244.194V69.1935H281.452V37.2581H244.194V0ZM217.806 42.8065H180.548V74.742H217.806V112H249.742V74.7419H287V42.8065H249.742V5.5484H217.806V42.8065ZM219.806 7.5484V44.8065H182.548L182.548 72.742H219.806V110H247.742V72.7419H285V44.8065H247.742V7.5484H219.806Z" fill="white"/>
<path d="M257.48 219.66L293.189 183.952L322.18 212.943L286.472 248.652L285.057 250.066L286.472 251.48L322.18 287.189L293.189 316.18L257.48 280.472L256.066 279.057L254.652 280.472L218.943 316.18L189.951 287.189L225.66 251.48L227.075 250.066L225.66 248.652L189.951 212.943L218.943 183.952L254.652 219.66L256.066 221.075L257.48 219.66Z" stroke="white" stroke-width="4"/>
</svg>
